<?xml version="1.0" encoding="UTF-8"?>
<!DOCTYPE svg PUBLIC "-//W3C//DTD SVG 1.1//EN" "http://www.w3.org/Graphics/SVG/1.1/DTD/svg11.dtd">
<!-- Creator: CorelDRAW X8 -->
<svg xmlns="http://www.w3.org/2000/svg" xml:space="preserve" width="5cm" height="1.30666cm" version="1.1" style="shape-rendering:geometricPrecision; text-rendering:geometricPrecision; image-rendering:optimizeQuality; fill-rule:evenodd; clip-rule:evenodd"
viewBox="0 0 3999 1045"
 xmlns:xlink="http://www.w3.org/1999/xlink">
 <defs>
  <style type="text/css">
   <![CDATA[
    .fil0 {fill:#662A40;fill-rule:nonzero}
   ]]>
  </style>
 </defs>
 <g id="Capa_x0020_1">
  <metadata id="CorelCorpID_0Corel-Layer"/>
  <path class="fil0" d="M3999 924c-11,60 -53,90 -127,90l-229 0c-18,0 -35,-7 -50,-22 -15,-15 -23,-32 -23,-50 0,-6 1,-12 3,-18 8,-28 20,-68 36,-121l-190 159c-48,40 -89,60 -123,60 -51,0 -76,-19 -76,-57 0,-13 3,-26 8,-41l46 -121 -224 187c-19,16 -43,24 -71,24l-115 0 119 -382 201 0 -60 191 180 -150c45,-37 95,-56 151,-56 46,0 69,17 69,51 0,10 -2,21 -6,33l-42 110 167 -142c41,-35 86,-52 136,-52 47,0 70,20 70,60 0,13 -3,28 -9,44l-71 203 230 0zm-211 -523c0,15 -8,28 -25,38 -14,9 -30,13 -46,13l-123 0c-33,0 -49,-13 -49,-40 0,-7 2,-14 4,-22l33 -105 -66 0 -47 93c-5,15 -16,23 -33,23l-28 0 42 -116c-13,-3 -24,-9 -32,-20 -8,-10 -12,-22 -12,-36 0,-24 11,-43 34,-57 19,-11 42,-17 68,-17l51 0 -26 79 172 0 -52 167 135 0zm-588 -116l-67 0 -22 75c-1,5 -2,9 -2,13 0,19 18,28 55,28l36 -116zm212 116c-10,34 -37,51 -79,51l-122 0c-35,0 -52,-11 -52,-33 -23,27 -52,40 -86,40 -25,0 -45,-8 -61,-23 -16,-16 -23,-36 -23,-61 0,-44 16,-80 50,-106 30,-23 68,-35 113,-35l179 0 -53 167 134 0zm-416 0c-10,34 -36,51 -80,51l-164 0c-32,0 -47,-11 -47,-33 0,-6 1,-12 3,-18l36 -116 -48 0 19 -51c34,-10 60,-22 77,-37 18,-17 39,-48 60,-92l63 0 -40 129 78 0c-12,34 -37,51 -75,51l-20 0 -35 116 173 0zm-285 0c-6,19 -18,33 -35,42 -13,6 -26,9 -41,9l-127 0c-31,0 -46,-12 -46,-38 0,-7 1,-15 4,-24l49 -156 116 0 -52 167 132 0zm-32 -299c0,21 -8,40 -25,55 -17,15 -37,22 -60,22 -24,0 -44,-7 -61,-22 -16,-15 -25,-34 -25,-55 0,-21 9,-39 25,-54 17,-16 37,-23 61,-23 23,0 43,7 60,23 17,15 25,33 25,54zm-212 299c-5,18 -15,31 -30,41 -12,7 -24,10 -38,10l-134 0c-32,0 -47,-10 -47,-30 -17,20 -40,30 -68,30l-57 0c-17,0 -31,-4 -41,-13 -9,-8 -13,-19 -13,-33 0,-8 1,-16 4,-24l54 -148 117 0 -60 167 66 0 60 -167 116 0 -60 167 131 0zm-452 -323c0,22 -9,41 -27,55 -17,15 -37,22 -59,22 -23,0 -42,-7 -59,-22 -18,-14 -27,-33 -27,-55 0,-7 1,-15 3,-23l-7 0c-51,0 -98,24 -138,70 -40,45 -60,94 -60,146 0,44 16,78 49,100 28,20 66,30 112,30l59 -167 121 0c-18,51 -45,127 -80,228 -17,48 -58,71 -122,71 -7,0 -16,0 -25,0l29 -81c-74,0 -135,-10 -182,-32 -64,-30 -96,-77 -96,-143 0,-36 11,-73 34,-111 31,-53 77,-94 136,-124 56,-28 116,-42 181,-42l72 0c22,0 42,7 58,22 18,15 28,34 28,56zm883 846c0,26 -15,49 -44,66 -25,16 -52,24 -80,24l-215 0c-57,0 -86,-24 -86,-71 0,-12 3,-25 8,-38l57 -183 -115 0 -84 161c-8,28 -27,41 -56,41l-50 0 74 -202c-23,-6 -42,-17 -56,-35 -14,-19 -21,-39 -21,-63 0,-43 20,-76 60,-100 33,-19 72,-29 118,-29l90 0 -46 137 300 0 -91 292 237 0zm-984 -202l-128 0 -51 144c-2,7 -4,15 -4,21 0,33 30,49 90,49 7,0 13,0 19,-1l74 -213zm613 -90c-15,60 -60,90 -135,90l-352 0c13,8 23,23 31,45 8,22 11,41 9,57 -5,63 -33,112 -82,147 -48,35 -110,52 -186,52 -88,1 -156,-16 -204,-52 -42,-32 -63,-73 -63,-124 0,-10 1,-21 3,-31 9,-56 38,-101 84,-133 49,-34 115,-51 198,-51l697 0zm-957 292c-17,60 -64,90 -140,90l-287 0c-55,0 -83,-19 -83,-58 0,-10 2,-21 6,-32l63 -202 -84 0 33 -90c60,-17 105,-39 134,-65 33,-30 68,-83 106,-161l110 0 -70 226 136 0c-21,60 -65,90 -131,90l-34 0 -62 202 303 0zm-345 -565c0,37 -15,69 -44,95 -29,27 -65,40 -106,40 -41,0 -76,-13 -106,-40 -29,-26 -43,-58 -43,-95 0,-8 1,-20 4,-33 -17,-2 -27,-3 -32,-3 -57,0 -85,24 -85,72 0,24 17,79 50,163 33,85 50,151 50,199 0,103 -57,180 -170,231 -85,38 -184,57 -298,57 -104,0 -196,-14 -276,-43 -113,-41 -169,-103 -169,-187 0,-122 104,-183 312,-183l213 0 41 90 -166 0c-42,0 -78,7 -109,22 -41,19 -61,47 -61,84 0,43 28,76 84,100 43,18 89,27 138,27 62,0 114,-13 156,-41 48,-31 72,-76 72,-135 0,-40 -15,-99 -46,-174 -30,-76 -46,-135 -46,-177 0,-137 117,-205 349,-205l139 0c38,0 72,13 102,39 31,27 47,60 47,97z"/>
 </g>
</svg>
