<?xml version="1.0" encoding="UTF-8"?>
<!DOCTYPE svg PUBLIC "-//W3C//DTD SVG 1.1//EN" "http://www.w3.org/Graphics/SVG/1.1/DTD/svg11.dtd">
<!-- Creator: CorelDRAW X8 -->
<svg xmlns="http://www.w3.org/2000/svg" xml:space="preserve" width="5.00001cm" height="2.47924cm" version="1.1" style="shape-rendering:geometricPrecision; text-rendering:geometricPrecision; image-rendering:optimizeQuality; fill-rule:evenodd; clip-rule:evenodd"
viewBox="0 0 4047 2007"
 xmlns:xlink="http://www.w3.org/1999/xlink">
 <defs>
  <style type="text/css">
   <![CDATA[
    .fil0 {fill:#FEFEFE;fill-rule:nonzero}
   ]]>
  </style>
 </defs>
 <g id="Capa_x0020_1">
  <metadata id="CorelCorpID_0Corel-Layer"/>
  <path class="fil0" d="M940 1928l0 0c0,0 116,-69 222,-232 105,-163 104,-212 225,-188 121,23 301,74 378,-27 0,0 46,-79 -30,-89 -76,-10 -159,-52 -180,-112 -20,-60 -29,-176 193,-250l1673 -557c0,0 80,49 125,38 1,0 3,-1 3,-1l11 33 -15 4c11,32 35,40 59,32 24,-8 38,-29 28,-60l-20 6 -11 -35c30,-12 81,-33 122,-51l8 23 -15 5c11,32 35,40 59,32 24,-8 38,-29 27,-61l-19 7 -9 -29c40,-17 81,-35 121,-53l7 19 -15 5c11,31 35,40 59,32 24,-8 38,-29 27,-61l-19 7 -8 -25c40,-18 71,-31 71,-31 23,-8 35,-33 28,-56l-56 -167c-8,-23 -33,-36 -56,-28 0,0 -32,7 -76,15l-11 -33 19 -6c-7,-21 -34,-40 -58,-32 -24,8 -35,40 -28,61l15 -5 9 27c-44,9 -87,18 -131,27l-11 -33 19 -7c-7,-21 -34,-40 -58,-32 -24,8 -35,40 -28,61l15 -5 9 28c-44,9 -97,21 -130,29l-12 -36 20 -6c-7,-21 -35,-40 -59,-32 -24,7 -35,39 -28,60l15 -5 11 33c0,0 -1,1 -2,1 -43,18 -78,106 -78,106l-1666 555c-37,-103 -91,-216 -155,-259 -131,-88 -241,-86 -328,-7 -87,78 -90,140 -180,158 -89,18 -326,-178 -596,-114l0 0c-21,5 -37,8 -56,15 -308,102 -455,490 -329,865 125,376 476,597 784,495 40,-14 73,-30 111,-54z"/>
 </g>
</svg>
